<mxfile host="app.diagrams.net" modified="2023-08-16T07:24:41.233Z" agent="Mozilla/5.0 (Macintosh; Intel Mac OS X 10_15_7) AppleWebKit/537.36 (KHTML, like Gecko) Chrome/115.0.0.0 Safari/537.36" etag="2s1G3DB--u4iZBZgbMr0" version="21.6.2" type="github" pages="2">
  <diagram name="Authen" id="ldd6pt2m9Ue7LnBuvwtY">
    <mxGraphModel dx="1399" dy="788" grid="1" gridSize="10" guides="1" tooltips="1" connect="1" arrows="1" fold="1" page="1" pageScale="1" pageWidth="1654" pageHeight="2336" math="0" shadow="0">
      <root>
        <mxCell id="MaJsxl8YtzW8cTp0N0sh-0" />
        <mxCell id="MaJsxl8YtzW8cTp0N0sh-1" parent="MaJsxl8YtzW8cTp0N0sh-0" />
        <mxCell id="MaJsxl8YtzW8cTp0N0sh-2" style="edgeStyle=orthogonalEdgeStyle;rounded=0;orthogonalLoop=1;jettySize=auto;html=1;exitX=0.5;exitY=0.5;exitDx=0;exitDy=0;exitPerimeter=0;entryX=0;entryY=0.5;entryDx=0;entryDy=0;" edge="1" parent="MaJsxl8YtzW8cTp0N0sh-1" source="MaJsxl8YtzW8cTp0N0sh-3" target="MaJsxl8YtzW8cTp0N0sh-5">
          <mxGeometry relative="1" as="geometry" />
        </mxCell>
        <mxCell id="MaJsxl8YtzW8cTp0N0sh-3" value="Actor" style="shape=umlActor;verticalLabelPosition=bottom;verticalAlign=top;html=1;" vertex="1" parent="MaJsxl8YtzW8cTp0N0sh-1">
          <mxGeometry x="150" y="365" width="30" height="60" as="geometry" />
        </mxCell>
        <mxCell id="--mauw7o4Z6DzH8X1izN-5" style="edgeStyle=orthogonalEdgeStyle;rounded=0;orthogonalLoop=1;jettySize=auto;html=1;exitX=1;exitY=0.5;exitDx=0;exitDy=0;" edge="1" parent="MaJsxl8YtzW8cTp0N0sh-1" source="MaJsxl8YtzW8cTp0N0sh-5" target="--mauw7o4Z6DzH8X1izN-4">
          <mxGeometry relative="1" as="geometry" />
        </mxCell>
        <mxCell id="MaJsxl8YtzW8cTp0N0sh-5" value="Login" style="ellipse;whiteSpace=wrap;html=1;" vertex="1" parent="MaJsxl8YtzW8cTp0N0sh-1">
          <mxGeometry x="290" y="360" width="140" height="70" as="geometry" />
        </mxCell>
        <mxCell id="MaJsxl8YtzW8cTp0N0sh-6" value="uis_users" style="swimlane;fontStyle=0;childLayout=stackLayout;horizontal=1;startSize=26;fillColor=none;horizontalStack=0;resizeParent=1;resizeParentMax=0;resizeLast=0;collapsible=1;marginBottom=0;whiteSpace=wrap;html=1;" vertex="1" parent="MaJsxl8YtzW8cTp0N0sh-1">
          <mxGeometry x="1260" y="310" width="140" height="130" as="geometry" />
        </mxCell>
        <mxCell id="MaJsxl8YtzW8cTp0N0sh-7" value="id" style="text;strokeColor=none;fillColor=none;align=left;verticalAlign=top;spacingLeft=4;spacingRight=4;overflow=hidden;rotatable=0;points=[[0,0.5],[1,0.5]];portConstraint=eastwest;whiteSpace=wrap;html=1;" vertex="1" parent="MaJsxl8YtzW8cTp0N0sh-6">
          <mxGeometry y="26" width="140" height="26" as="geometry" />
        </mxCell>
        <mxCell id="MaJsxl8YtzW8cTp0N0sh-8" value="mail" style="text;strokeColor=none;fillColor=none;align=left;verticalAlign=top;spacingLeft=4;spacingRight=4;overflow=hidden;rotatable=0;points=[[0,0.5],[1,0.5]];portConstraint=eastwest;whiteSpace=wrap;html=1;" vertex="1" parent="MaJsxl8YtzW8cTp0N0sh-6">
          <mxGeometry y="52" width="140" height="26" as="geometry" />
        </mxCell>
        <mxCell id="MaJsxl8YtzW8cTp0N0sh-9" value="pasword" style="text;strokeColor=none;fillColor=none;align=left;verticalAlign=top;spacingLeft=4;spacingRight=4;overflow=hidden;rotatable=0;points=[[0,0.5],[1,0.5]];portConstraint=eastwest;whiteSpace=wrap;html=1;" vertex="1" parent="MaJsxl8YtzW8cTp0N0sh-6">
          <mxGeometry y="78" width="140" height="26" as="geometry" />
        </mxCell>
        <mxCell id="MaJsxl8YtzW8cTp0N0sh-10" value="salt" style="text;strokeColor=none;fillColor=none;align=left;verticalAlign=top;spacingLeft=4;spacingRight=4;overflow=hidden;rotatable=0;points=[[0,0.5],[1,0.5]];portConstraint=eastwest;whiteSpace=wrap;html=1;" vertex="1" parent="MaJsxl8YtzW8cTp0N0sh-6">
          <mxGeometry y="104" width="140" height="26" as="geometry" />
        </mxCell>
        <mxCell id="MaJsxl8YtzW8cTp0N0sh-12" value="&lt;div&gt;SELECT * from &lt;b&gt;uis_users&lt;/b&gt;&lt;/div&gt;&lt;div&gt;WHERE email = {email}&amp;nbsp;&lt;/div&gt;" style="text;html=1;strokeColor=none;fillColor=none;align=left;verticalAlign=middle;whiteSpace=wrap;rounded=0;" vertex="1" parent="MaJsxl8YtzW8cTp0N0sh-1">
          <mxGeometry x="1030" y="320" width="180" height="60" as="geometry" />
        </mxCell>
        <mxCell id="MaJsxl8YtzW8cTp0N0sh-13" style="edgeStyle=orthogonalEdgeStyle;rounded=0;orthogonalLoop=1;jettySize=auto;html=1;exitX=0.5;exitY=0.5;exitDx=0;exitDy=0;exitPerimeter=0;entryX=0;entryY=0.5;entryDx=0;entryDy=0;" edge="1" parent="MaJsxl8YtzW8cTp0N0sh-1" source="MaJsxl8YtzW8cTp0N0sh-14" target="MaJsxl8YtzW8cTp0N0sh-16">
          <mxGeometry relative="1" as="geometry" />
        </mxCell>
        <mxCell id="MaJsxl8YtzW8cTp0N0sh-14" value="Actor" style="shape=umlActor;verticalLabelPosition=bottom;verticalAlign=top;html=1;" vertex="1" parent="MaJsxl8YtzW8cTp0N0sh-1">
          <mxGeometry x="160" y="515" width="30" height="60" as="geometry" />
        </mxCell>
        <mxCell id="--mauw7o4Z6DzH8X1izN-15" style="edgeStyle=orthogonalEdgeStyle;rounded=0;orthogonalLoop=1;jettySize=auto;html=1;exitX=1;exitY=0.5;exitDx=0;exitDy=0;" edge="1" parent="MaJsxl8YtzW8cTp0N0sh-1" source="MaJsxl8YtzW8cTp0N0sh-16" target="--mauw7o4Z6DzH8X1izN-14">
          <mxGeometry relative="1" as="geometry" />
        </mxCell>
        <mxCell id="MaJsxl8YtzW8cTp0N0sh-16" value="Register" style="ellipse;whiteSpace=wrap;html=1;" vertex="1" parent="MaJsxl8YtzW8cTp0N0sh-1">
          <mxGeometry x="300" y="510" width="140" height="70" as="geometry" />
        </mxCell>
        <mxCell id="MaJsxl8YtzW8cTp0N0sh-23" value="&lt;div&gt;INSERT INTO &lt;b&gt;uis_users&lt;/b&gt;(mail, password, user_cond_kbn, salt, created_at, updated_at)&lt;/div&gt;&lt;div&gt;VALUES (mail, auto_generate_password, 1, auto_generate_salt, Time.now, Time.now);&lt;/div&gt;" style="text;html=1;strokeColor=none;fillColor=none;align=left;verticalAlign=middle;whiteSpace=wrap;rounded=0;" vertex="1" parent="MaJsxl8YtzW8cTp0N0sh-1">
          <mxGeometry x="970" y="475" width="250" height="65" as="geometry" />
        </mxCell>
        <mxCell id="MaJsxl8YtzW8cTp0N0sh-24" style="edgeStyle=orthogonalEdgeStyle;rounded=0;orthogonalLoop=1;jettySize=auto;html=1;exitX=0.5;exitY=0.5;exitDx=0;exitDy=0;exitPerimeter=0;entryX=0;entryY=0.5;entryDx=0;entryDy=0;" edge="1" parent="MaJsxl8YtzW8cTp0N0sh-1" source="MaJsxl8YtzW8cTp0N0sh-25" target="MaJsxl8YtzW8cTp0N0sh-27">
          <mxGeometry relative="1" as="geometry" />
        </mxCell>
        <mxCell id="MaJsxl8YtzW8cTp0N0sh-25" value="Actor" style="shape=umlActor;verticalLabelPosition=bottom;verticalAlign=top;html=1;" vertex="1" parent="MaJsxl8YtzW8cTp0N0sh-1">
          <mxGeometry x="160" y="685" width="30" height="60" as="geometry" />
        </mxCell>
        <mxCell id="--mauw7o4Z6DzH8X1izN-24" style="edgeStyle=orthogonalEdgeStyle;rounded=0;orthogonalLoop=1;jettySize=auto;html=1;exitX=1;exitY=0.5;exitDx=0;exitDy=0;" edge="1" parent="MaJsxl8YtzW8cTp0N0sh-1" source="MaJsxl8YtzW8cTp0N0sh-27" target="--mauw7o4Z6DzH8X1izN-22">
          <mxGeometry relative="1" as="geometry" />
        </mxCell>
        <mxCell id="MaJsxl8YtzW8cTp0N0sh-27" value="Update password" style="ellipse;whiteSpace=wrap;html=1;" vertex="1" parent="MaJsxl8YtzW8cTp0N0sh-1">
          <mxGeometry x="300" y="680" width="140" height="70" as="geometry" />
        </mxCell>
        <mxCell id="MaJsxl8YtzW8cTp0N0sh-33" value="mail" style="text;html=1;strokeColor=none;fillColor=none;align=center;verticalAlign=middle;whiteSpace=wrap;rounded=0;" vertex="1" parent="MaJsxl8YtzW8cTp0N0sh-1">
          <mxGeometry x="200" y="680" width="60" height="30" as="geometry" />
        </mxCell>
        <mxCell id="MaJsxl8YtzW8cTp0N0sh-35" style="edgeStyle=orthogonalEdgeStyle;rounded=0;orthogonalLoop=1;jettySize=auto;html=1;exitX=0.5;exitY=0.5;exitDx=0;exitDy=0;exitPerimeter=0;entryX=0;entryY=0.5;entryDx=0;entryDy=0;" edge="1" parent="MaJsxl8YtzW8cTp0N0sh-1" source="MaJsxl8YtzW8cTp0N0sh-36" target="MaJsxl8YtzW8cTp0N0sh-37">
          <mxGeometry relative="1" as="geometry" />
        </mxCell>
        <mxCell id="MaJsxl8YtzW8cTp0N0sh-36" value="Actor" style="shape=umlActor;verticalLabelPosition=bottom;verticalAlign=top;html=1;" vertex="1" parent="MaJsxl8YtzW8cTp0N0sh-1">
          <mxGeometry x="165" y="855" width="30" height="60" as="geometry" />
        </mxCell>
        <mxCell id="--mauw7o4Z6DzH8X1izN-38" style="edgeStyle=orthogonalEdgeStyle;rounded=0;orthogonalLoop=1;jettySize=auto;html=1;exitX=1;exitY=0.5;exitDx=0;exitDy=0;" edge="1" parent="MaJsxl8YtzW8cTp0N0sh-1" source="MaJsxl8YtzW8cTp0N0sh-37" target="--mauw7o4Z6DzH8X1izN-36">
          <mxGeometry relative="1" as="geometry" />
        </mxCell>
        <mxCell id="MaJsxl8YtzW8cTp0N0sh-37" value="Login from IOPortal" style="ellipse;whiteSpace=wrap;html=1;" vertex="1" parent="MaJsxl8YtzW8cTp0N0sh-1">
          <mxGeometry x="305" y="850" width="140" height="70" as="geometry" />
        </mxCell>
        <mxCell id="MaJsxl8YtzW8cTp0N0sh-43" value="hash_key" style="text;html=1;strokeColor=none;fillColor=none;align=center;verticalAlign=middle;whiteSpace=wrap;rounded=0;" vertex="1" parent="MaJsxl8YtzW8cTp0N0sh-1">
          <mxGeometry x="205" y="850" width="60" height="30" as="geometry" />
        </mxCell>
        <mxCell id="--mauw7o4Z6DzH8X1izN-1" value="Backend" style="shape=umlLifeline;perimeter=lifelinePerimeter;whiteSpace=wrap;html=1;container=1;dropTarget=0;collapsible=0;recursiveResize=0;outlineConnect=0;portConstraint=eastwest;newEdgeStyle={&quot;edgeStyle&quot;:&quot;elbowEdgeStyle&quot;,&quot;elbow&quot;:&quot;vertical&quot;,&quot;curved&quot;:0,&quot;rounded&quot;:0};" vertex="1" parent="MaJsxl8YtzW8cTp0N0sh-1">
          <mxGeometry x="600" y="280" width="100" height="740" as="geometry" />
        </mxCell>
        <mxCell id="--mauw7o4Z6DzH8X1izN-4" value="" style="html=1;points=[];perimeter=orthogonalPerimeter;outlineConnect=0;targetShapes=umlLifeline;portConstraint=eastwest;newEdgeStyle={&quot;edgeStyle&quot;:&quot;elbowEdgeStyle&quot;,&quot;elbow&quot;:&quot;vertical&quot;,&quot;curved&quot;:0,&quot;rounded&quot;:0};" vertex="1" parent="--mauw7o4Z6DzH8X1izN-1">
          <mxGeometry x="45" y="75" width="10" height="80" as="geometry" />
        </mxCell>
        <mxCell id="--mauw7o4Z6DzH8X1izN-14" value="" style="html=1;points=[];perimeter=orthogonalPerimeter;outlineConnect=0;targetShapes=umlLifeline;portConstraint=eastwest;newEdgeStyle={&quot;edgeStyle&quot;:&quot;elbowEdgeStyle&quot;,&quot;elbow&quot;:&quot;vertical&quot;,&quot;curved&quot;:0,&quot;rounded&quot;:0};" vertex="1" parent="--mauw7o4Z6DzH8X1izN-1">
          <mxGeometry x="45" y="225" width="10" height="80" as="geometry" />
        </mxCell>
        <mxCell id="--mauw7o4Z6DzH8X1izN-22" value="" style="html=1;points=[];perimeter=orthogonalPerimeter;outlineConnect=0;targetShapes=umlLifeline;portConstraint=eastwest;newEdgeStyle={&quot;edgeStyle&quot;:&quot;elbowEdgeStyle&quot;,&quot;elbow&quot;:&quot;vertical&quot;,&quot;curved&quot;:0,&quot;rounded&quot;:0};" vertex="1" parent="--mauw7o4Z6DzH8X1izN-1">
          <mxGeometry x="45" y="395" width="10" height="80" as="geometry" />
        </mxCell>
        <mxCell id="--mauw7o4Z6DzH8X1izN-36" value="" style="html=1;points=[];perimeter=orthogonalPerimeter;outlineConnect=0;targetShapes=umlLifeline;portConstraint=eastwest;newEdgeStyle={&quot;edgeStyle&quot;:&quot;elbowEdgeStyle&quot;,&quot;elbow&quot;:&quot;vertical&quot;,&quot;curved&quot;:0,&quot;rounded&quot;:0};" vertex="1" parent="--mauw7o4Z6DzH8X1izN-1">
          <mxGeometry x="45" y="564" width="10" height="80" as="geometry" />
        </mxCell>
        <mxCell id="--mauw7o4Z6DzH8X1izN-2" value="Database" style="shape=umlLifeline;perimeter=lifelinePerimeter;whiteSpace=wrap;html=1;container=1;dropTarget=0;collapsible=0;recursiveResize=0;outlineConnect=0;portConstraint=eastwest;newEdgeStyle={&quot;edgeStyle&quot;:&quot;elbowEdgeStyle&quot;,&quot;elbow&quot;:&quot;vertical&quot;,&quot;curved&quot;:0,&quot;rounded&quot;:0};" vertex="1" parent="MaJsxl8YtzW8cTp0N0sh-1">
          <mxGeometry x="870" y="280" width="100" height="740" as="geometry" />
        </mxCell>
        <mxCell id="--mauw7o4Z6DzH8X1izN-6" value="" style="html=1;points=[];perimeter=orthogonalPerimeter;outlineConnect=0;targetShapes=umlLifeline;portConstraint=eastwest;newEdgeStyle={&quot;edgeStyle&quot;:&quot;elbowEdgeStyle&quot;,&quot;elbow&quot;:&quot;vertical&quot;,&quot;curved&quot;:0,&quot;rounded&quot;:0};" vertex="1" parent="--mauw7o4Z6DzH8X1izN-2">
          <mxGeometry x="45" y="75" width="10" height="80" as="geometry" />
        </mxCell>
        <mxCell id="--mauw7o4Z6DzH8X1izN-17" value="" style="html=1;points=[];perimeter=orthogonalPerimeter;outlineConnect=0;targetShapes=umlLifeline;portConstraint=eastwest;newEdgeStyle={&quot;edgeStyle&quot;:&quot;elbowEdgeStyle&quot;,&quot;elbow&quot;:&quot;vertical&quot;,&quot;curved&quot;:0,&quot;rounded&quot;:0};" vertex="1" parent="--mauw7o4Z6DzH8X1izN-2">
          <mxGeometry x="45" y="225" width="10" height="80" as="geometry" />
        </mxCell>
        <mxCell id="--mauw7o4Z6DzH8X1izN-23" value="" style="html=1;points=[];perimeter=orthogonalPerimeter;outlineConnect=0;targetShapes=umlLifeline;portConstraint=eastwest;newEdgeStyle={&quot;edgeStyle&quot;:&quot;elbowEdgeStyle&quot;,&quot;elbow&quot;:&quot;vertical&quot;,&quot;curved&quot;:0,&quot;rounded&quot;:0};" vertex="1" parent="--mauw7o4Z6DzH8X1izN-2">
          <mxGeometry x="45" y="394" width="10" height="80" as="geometry" />
        </mxCell>
        <mxCell id="--mauw7o4Z6DzH8X1izN-37" value="" style="html=1;points=[];perimeter=orthogonalPerimeter;outlineConnect=0;targetShapes=umlLifeline;portConstraint=eastwest;newEdgeStyle={&quot;edgeStyle&quot;:&quot;elbowEdgeStyle&quot;,&quot;elbow&quot;:&quot;vertical&quot;,&quot;curved&quot;:0,&quot;rounded&quot;:0};" vertex="1" parent="--mauw7o4Z6DzH8X1izN-2">
          <mxGeometry x="45" y="563" width="10" height="80" as="geometry" />
        </mxCell>
        <mxCell id="--mauw7o4Z6DzH8X1izN-7" style="edgeStyle=orthogonalEdgeStyle;rounded=0;orthogonalLoop=1;jettySize=auto;html=1;" edge="1" parent="MaJsxl8YtzW8cTp0N0sh-1">
          <mxGeometry relative="1" as="geometry">
            <mxPoint x="655" y="374.5" as="sourcePoint" />
            <mxPoint x="915" y="374.5" as="targetPoint" />
          </mxGeometry>
        </mxCell>
        <mxCell id="--mauw7o4Z6DzH8X1izN-8" value="mail + password" style="text;html=1;strokeColor=none;fillColor=none;align=center;verticalAlign=middle;whiteSpace=wrap;rounded=0;" vertex="1" parent="MaJsxl8YtzW8cTp0N0sh-1">
          <mxGeometry x="445" y="360" width="60" height="30" as="geometry" />
        </mxCell>
        <mxCell id="--mauw7o4Z6DzH8X1izN-9" value="" style="edgeStyle=elbowEdgeStyle;rounded=0;orthogonalLoop=1;jettySize=auto;html=1;elbow=vertical;curved=0;entryX=0;entryY=0.5;entryDx=0;entryDy=0;" edge="1" parent="MaJsxl8YtzW8cTp0N0sh-1" source="--mauw7o4Z6DzH8X1izN-6" target="MaJsxl8YtzW8cTp0N0sh-8">
          <mxGeometry relative="1" as="geometry" />
        </mxCell>
        <mxCell id="--mauw7o4Z6DzH8X1izN-10" value="1. Tìm salt, password trong database theo email" style="text;html=1;strokeColor=none;fillColor=none;align=left;verticalAlign=middle;whiteSpace=wrap;rounded=0;" vertex="1" parent="MaJsxl8YtzW8cTp0N0sh-1">
          <mxGeometry x="690" y="340" width="170" height="30" as="geometry" />
        </mxCell>
        <mxCell id="--mauw7o4Z6DzH8X1izN-12" value="2. Mã hoá password input (với salt). Sau đó so sánh" style="text;html=1;strokeColor=none;fillColor=none;align=left;verticalAlign=middle;whiteSpace=wrap;rounded=0;" vertex="1" parent="MaJsxl8YtzW8cTp0N0sh-1">
          <mxGeometry x="690" y="380" width="170" height="30" as="geometry" />
        </mxCell>
        <mxCell id="--mauw7o4Z6DzH8X1izN-16" value="mail" style="text;html=1;strokeColor=none;fillColor=none;align=center;verticalAlign=middle;whiteSpace=wrap;rounded=0;" vertex="1" parent="MaJsxl8YtzW8cTp0N0sh-1">
          <mxGeometry x="440" y="510" width="60" height="30" as="geometry" />
        </mxCell>
        <mxCell id="--mauw7o4Z6DzH8X1izN-18" style="edgeStyle=orthogonalEdgeStyle;rounded=0;orthogonalLoop=1;jettySize=auto;html=1;" edge="1" parent="MaJsxl8YtzW8cTp0N0sh-1" source="--mauw7o4Z6DzH8X1izN-14" target="--mauw7o4Z6DzH8X1izN-17">
          <mxGeometry relative="1" as="geometry">
            <mxPoint x="660" y="545" as="sourcePoint" />
            <mxPoint x="780" y="600" as="targetPoint" />
          </mxGeometry>
        </mxCell>
        <mxCell id="--mauw7o4Z6DzH8X1izN-19" value="1. Random ra salt, password. Sau đó save vào database" style="text;html=1;strokeColor=none;fillColor=none;align=left;verticalAlign=middle;whiteSpace=wrap;rounded=0;" vertex="1" parent="MaJsxl8YtzW8cTp0N0sh-1">
          <mxGeometry x="690" y="510" width="170" height="30" as="geometry" />
        </mxCell>
        <mxCell id="--mauw7o4Z6DzH8X1izN-20" value="2. Gửi mail kèm token (để xác thực khi người dùng bấm vào link trong mail)" style="text;html=1;strokeColor=none;fillColor=none;align=left;verticalAlign=middle;whiteSpace=wrap;rounded=0;" vertex="1" parent="MaJsxl8YtzW8cTp0N0sh-1">
          <mxGeometry x="690" y="554" width="190" height="50" as="geometry" />
        </mxCell>
        <mxCell id="--mauw7o4Z6DzH8X1izN-21" style="edgeStyle=orthogonalEdgeStyle;rounded=0;orthogonalLoop=1;jettySize=auto;html=1;entryX=0.535;entryY=1.004;entryDx=0;entryDy=0;entryPerimeter=0;" edge="1" parent="MaJsxl8YtzW8cTp0N0sh-1" source="--mauw7o4Z6DzH8X1izN-17" target="MaJsxl8YtzW8cTp0N0sh-10">
          <mxGeometry relative="1" as="geometry">
            <mxPoint x="990" y="554" as="sourcePoint" />
            <mxPoint x="1250" y="554" as="targetPoint" />
          </mxGeometry>
        </mxCell>
        <mxCell id="--mauw7o4Z6DzH8X1izN-25" style="edgeStyle=orthogonalEdgeStyle;rounded=0;orthogonalLoop=1;jettySize=auto;html=1;" edge="1" parent="MaJsxl8YtzW8cTp0N0sh-1">
          <mxGeometry relative="1" as="geometry">
            <mxPoint x="655" y="700" as="sourcePoint" />
            <mxPoint x="915" y="699" as="targetPoint" />
          </mxGeometry>
        </mxCell>
        <mxCell id="--mauw7o4Z6DzH8X1izN-26" value="1. Decode token từ link, xử lý tìm đến bản ghi trong database" style="text;html=1;strokeColor=none;fillColor=none;align=left;verticalAlign=middle;whiteSpace=wrap;rounded=0;" vertex="1" parent="MaJsxl8YtzW8cTp0N0sh-1">
          <mxGeometry x="690" y="670" width="170" height="30" as="geometry" />
        </mxCell>
        <mxCell id="--mauw7o4Z6DzH8X1izN-27" value="&lt;div&gt;SELECT * from &lt;b&gt;uis_users&lt;/b&gt;&lt;/div&gt;&lt;div&gt;WHERE email = {email}&amp;nbsp;&lt;/div&gt;" style="text;html=1;strokeColor=none;fillColor=none;align=left;verticalAlign=middle;whiteSpace=wrap;rounded=0;" vertex="1" parent="MaJsxl8YtzW8cTp0N0sh-1">
          <mxGeometry x="1005" y="639" width="180" height="60" as="geometry" />
        </mxCell>
        <mxCell id="--mauw7o4Z6DzH8X1izN-28" value="" style="edgeStyle=elbowEdgeStyle;rounded=0;orthogonalLoop=1;jettySize=auto;html=1;elbow=vertical;curved=0;entryX=0.533;entryY=0.976;entryDx=0;entryDy=0;entryPerimeter=0;" edge="1" parent="MaJsxl8YtzW8cTp0N0sh-1" target="MaJsxl8YtzW8cTp0N0sh-10">
          <mxGeometry relative="1" as="geometry">
            <mxPoint x="925" y="694.4477777777778" as="sourcePoint" />
            <mxPoint x="1412.020263671875" y="695" as="targetPoint" />
            <Array as="points">
              <mxPoint x="1120" y="695" />
            </Array>
          </mxGeometry>
        </mxCell>
        <mxCell id="--mauw7o4Z6DzH8X1izN-31" style="edgeStyle=orthogonalEdgeStyle;rounded=0;orthogonalLoop=1;jettySize=auto;html=1;" edge="1" parent="MaJsxl8YtzW8cTp0N0sh-1">
          <mxGeometry relative="1" as="geometry">
            <mxPoint x="656" y="743" as="sourcePoint" />
            <mxPoint x="915" y="743" as="targetPoint" />
            <Array as="points">
              <mxPoint x="786" y="744" />
            </Array>
          </mxGeometry>
        </mxCell>
        <mxCell id="--mauw7o4Z6DzH8X1izN-32" value="2. Mã hoá password + insert vào database" style="text;html=1;strokeColor=none;fillColor=none;align=left;verticalAlign=middle;whiteSpace=wrap;rounded=0;" vertex="1" parent="MaJsxl8YtzW8cTp0N0sh-1">
          <mxGeometry x="690" y="710" width="170" height="30" as="geometry" />
        </mxCell>
        <mxCell id="--mauw7o4Z6DzH8X1izN-34" value="" style="edgeStyle=elbowEdgeStyle;rounded=0;orthogonalLoop=1;jettySize=auto;html=1;elbow=vertical;curved=0;entryX=0.525;entryY=0.976;entryDx=0;entryDy=0;entryPerimeter=0;" edge="1" parent="MaJsxl8YtzW8cTp0N0sh-1" target="MaJsxl8YtzW8cTp0N0sh-10">
          <mxGeometry relative="1" as="geometry">
            <mxPoint x="925" y="733" as="sourcePoint" />
            <mxPoint x="1400" y="459" as="targetPoint" />
            <Array as="points">
              <mxPoint x="1200" y="745" />
            </Array>
          </mxGeometry>
        </mxCell>
        <mxCell id="--mauw7o4Z6DzH8X1izN-35" value="&lt;div&gt;INSERT INTO uis_users(password, updated_at)&lt;/div&gt;&lt;div&gt;VALUES (password_salt, Time.now);&lt;/div&gt;" style="text;html=1;align=left;verticalAlign=middle;resizable=0;points=[];autosize=1;strokeColor=none;fillColor=none;" vertex="1" parent="MaJsxl8YtzW8cTp0N0sh-1">
          <mxGeometry x="975" y="705" width="280" height="40" as="geometry" />
        </mxCell>
        <mxCell id="--mauw7o4Z6DzH8X1izN-39" style="edgeStyle=orthogonalEdgeStyle;rounded=0;orthogonalLoop=1;jettySize=auto;html=1;" edge="1" parent="MaJsxl8YtzW8cTp0N0sh-1">
          <mxGeometry relative="1" as="geometry">
            <mxPoint x="655" y="861" as="sourcePoint" />
            <mxPoint x="915" y="860" as="targetPoint" />
            <Array as="points" />
          </mxGeometry>
        </mxCell>
        <mxCell id="--mauw7o4Z6DzH8X1izN-44" value="1. Decode token từ link, xử lý tìm đến bản ghi trong database" style="text;html=1;strokeColor=none;fillColor=none;align=left;verticalAlign=middle;whiteSpace=wrap;rounded=0;" vertex="1" parent="MaJsxl8YtzW8cTp0N0sh-1">
          <mxGeometry x="690" y="825" width="170" height="30" as="geometry" />
        </mxCell>
        <mxCell id="--mauw7o4Z6DzH8X1izN-45" value="&lt;div&gt;SELECT * from &lt;b&gt;uis_users&lt;/b&gt;&lt;/div&gt;&lt;div&gt;WHERE email = {email}&amp;nbsp;&lt;/div&gt;" style="text;html=1;strokeColor=none;fillColor=none;align=left;verticalAlign=middle;whiteSpace=wrap;rounded=0;" vertex="1" parent="MaJsxl8YtzW8cTp0N0sh-1">
          <mxGeometry x="1005" y="810" width="180" height="60" as="geometry" />
        </mxCell>
        <mxCell id="--mauw7o4Z6DzH8X1izN-46" value="" style="edgeStyle=elbowEdgeStyle;rounded=0;orthogonalLoop=1;jettySize=auto;html=1;elbow=vertical;curved=0;entryX=0.543;entryY=1.027;entryDx=0;entryDy=0;entryPerimeter=0;" edge="1" parent="MaJsxl8YtzW8cTp0N0sh-1" source="--mauw7o4Z6DzH8X1izN-37" target="MaJsxl8YtzW8cTp0N0sh-10">
          <mxGeometry relative="1" as="geometry">
            <mxPoint x="935.3888888888891" y="868" as="sourcePoint" />
            <mxPoint x="1375" y="562" as="targetPoint" />
            <Array as="points">
              <mxPoint x="1241" y="868" />
            </Array>
          </mxGeometry>
        </mxCell>
        <mxCell id="--mauw7o4Z6DzH8X1izN-47" value="2. Xử lý set session cho user" style="text;html=1;strokeColor=none;fillColor=none;align=left;verticalAlign=middle;whiteSpace=wrap;rounded=0;" vertex="1" parent="MaJsxl8YtzW8cTp0N0sh-1">
          <mxGeometry x="690" y="870" width="170" height="30" as="geometry" />
        </mxCell>
      </root>
    </mxGraphModel>
  </diagram>
  <diagram name="PIN active" id="yM7PVK8bb2S3n20SxisK">
    <mxGraphModel dx="1574" dy="886" grid="1" gridSize="10" guides="1" tooltips="1" connect="1" arrows="1" fold="1" page="1" pageScale="1" pageWidth="1654" pageHeight="2336" math="0" shadow="0">
      <root>
        <mxCell id="Hem0ga0K1KAMjYj6NkU0-0" />
        <mxCell id="Hem0ga0K1KAMjYj6NkU0-1" parent="Hem0ga0K1KAMjYj6NkU0-0" />
        <mxCell id="Hem0ga0K1KAMjYj6NkU0-2" style="edgeStyle=orthogonalEdgeStyle;rounded=0;orthogonalLoop=1;jettySize=auto;html=1;exitX=0.5;exitY=0.5;exitDx=0;exitDy=0;exitPerimeter=0;entryX=0;entryY=0.5;entryDx=0;entryDy=0;" edge="1" parent="Hem0ga0K1KAMjYj6NkU0-1" source="Hem0ga0K1KAMjYj6NkU0-3" target="Hem0ga0K1KAMjYj6NkU0-5">
          <mxGeometry relative="1" as="geometry" />
        </mxCell>
        <mxCell id="Hem0ga0K1KAMjYj6NkU0-3" value="Actor" style="shape=umlActor;verticalLabelPosition=bottom;verticalAlign=top;html=1;" vertex="1" parent="Hem0ga0K1KAMjYj6NkU0-1">
          <mxGeometry x="10" y="365" width="30" height="60" as="geometry" />
        </mxCell>
        <mxCell id="Hem0ga0K1KAMjYj6NkU0-4" style="edgeStyle=orthogonalEdgeStyle;rounded=0;orthogonalLoop=1;jettySize=auto;html=1;exitX=1;exitY=0.5;exitDx=0;exitDy=0;" edge="1" parent="Hem0ga0K1KAMjYj6NkU0-1" source="Hem0ga0K1KAMjYj6NkU0-5" target="Hem0ga0K1KAMjYj6NkU0-28">
          <mxGeometry relative="1" as="geometry" />
        </mxCell>
        <mxCell id="Hem0ga0K1KAMjYj6NkU0-5" value="PIN active" style="ellipse;whiteSpace=wrap;html=1;" vertex="1" parent="Hem0ga0K1KAMjYj6NkU0-1">
          <mxGeometry x="150" y="360" width="140" height="70" as="geometry" />
        </mxCell>
        <mxCell id="Hem0ga0K1KAMjYj6NkU0-6" value="uis_users" style="swimlane;fontStyle=0;childLayout=stackLayout;horizontal=1;startSize=26;fillColor=none;horizontalStack=0;resizeParent=1;resizeParentMax=0;resizeLast=0;collapsible=1;marginBottom=0;whiteSpace=wrap;html=1;" vertex="1" parent="Hem0ga0K1KAMjYj6NkU0-1">
          <mxGeometry x="1260" y="310" width="140" height="130" as="geometry" />
        </mxCell>
        <mxCell id="Hem0ga0K1KAMjYj6NkU0-7" value="id" style="text;strokeColor=none;fillColor=none;align=left;verticalAlign=top;spacingLeft=4;spacingRight=4;overflow=hidden;rotatable=0;points=[[0,0.5],[1,0.5]];portConstraint=eastwest;whiteSpace=wrap;html=1;" vertex="1" parent="Hem0ga0K1KAMjYj6NkU0-6">
          <mxGeometry y="26" width="140" height="26" as="geometry" />
        </mxCell>
        <mxCell id="Hem0ga0K1KAMjYj6NkU0-8" value="mail" style="text;strokeColor=none;fillColor=none;align=left;verticalAlign=top;spacingLeft=4;spacingRight=4;overflow=hidden;rotatable=0;points=[[0,0.5],[1,0.5]];portConstraint=eastwest;whiteSpace=wrap;html=1;" vertex="1" parent="Hem0ga0K1KAMjYj6NkU0-6">
          <mxGeometry y="52" width="140" height="26" as="geometry" />
        </mxCell>
        <mxCell id="Hem0ga0K1KAMjYj6NkU0-9" value="pasword" style="text;strokeColor=none;fillColor=none;align=left;verticalAlign=top;spacingLeft=4;spacingRight=4;overflow=hidden;rotatable=0;points=[[0,0.5],[1,0.5]];portConstraint=eastwest;whiteSpace=wrap;html=1;" vertex="1" parent="Hem0ga0K1KAMjYj6NkU0-6">
          <mxGeometry y="78" width="140" height="26" as="geometry" />
        </mxCell>
        <mxCell id="Hem0ga0K1KAMjYj6NkU0-10" value="salt" style="text;strokeColor=none;fillColor=none;align=left;verticalAlign=top;spacingLeft=4;spacingRight=4;overflow=hidden;rotatable=0;points=[[0,0.5],[1,0.5]];portConstraint=eastwest;whiteSpace=wrap;html=1;" vertex="1" parent="Hem0ga0K1KAMjYj6NkU0-6">
          <mxGeometry y="104" width="140" height="26" as="geometry" />
        </mxCell>
        <mxCell id="Hem0ga0K1KAMjYj6NkU0-11" value="&lt;div&gt;SELECT * from &lt;b&gt;uis_users&lt;/b&gt;&lt;/div&gt;&lt;div&gt;WHERE email = {email}&amp;nbsp;&lt;/div&gt;" style="text;html=1;strokeColor=none;fillColor=none;align=left;verticalAlign=middle;whiteSpace=wrap;rounded=0;" vertex="1" parent="Hem0ga0K1KAMjYj6NkU0-1">
          <mxGeometry x="1030" y="320" width="180" height="60" as="geometry" />
        </mxCell>
        <mxCell id="Hem0ga0K1KAMjYj6NkU0-27" value="Backend" style="shape=umlLifeline;perimeter=lifelinePerimeter;whiteSpace=wrap;html=1;container=1;dropTarget=0;collapsible=0;recursiveResize=0;outlineConnect=0;portConstraint=eastwest;newEdgeStyle={&quot;edgeStyle&quot;:&quot;elbowEdgeStyle&quot;,&quot;elbow&quot;:&quot;vertical&quot;,&quot;curved&quot;:0,&quot;rounded&quot;:0};" vertex="1" parent="Hem0ga0K1KAMjYj6NkU0-1">
          <mxGeometry x="600" y="280" width="100" height="740" as="geometry" />
        </mxCell>
        <mxCell id="Hem0ga0K1KAMjYj6NkU0-28" value="" style="html=1;points=[];perimeter=orthogonalPerimeter;outlineConnect=0;targetShapes=umlLifeline;portConstraint=eastwest;newEdgeStyle={&quot;edgeStyle&quot;:&quot;elbowEdgeStyle&quot;,&quot;elbow&quot;:&quot;vertical&quot;,&quot;curved&quot;:0,&quot;rounded&quot;:0};" vertex="1" parent="Hem0ga0K1KAMjYj6NkU0-27">
          <mxGeometry x="45" y="75" width="10" height="80" as="geometry" />
        </mxCell>
        <mxCell id="Hem0ga0K1KAMjYj6NkU0-32" value="Database" style="shape=umlLifeline;perimeter=lifelinePerimeter;whiteSpace=wrap;html=1;container=1;dropTarget=0;collapsible=0;recursiveResize=0;outlineConnect=0;portConstraint=eastwest;newEdgeStyle={&quot;edgeStyle&quot;:&quot;elbowEdgeStyle&quot;,&quot;elbow&quot;:&quot;vertical&quot;,&quot;curved&quot;:0,&quot;rounded&quot;:0};" vertex="1" parent="Hem0ga0K1KAMjYj6NkU0-1">
          <mxGeometry x="870" y="280" width="100" height="740" as="geometry" />
        </mxCell>
        <mxCell id="Hem0ga0K1KAMjYj6NkU0-33" value="" style="html=1;points=[];perimeter=orthogonalPerimeter;outlineConnect=0;targetShapes=umlLifeline;portConstraint=eastwest;newEdgeStyle={&quot;edgeStyle&quot;:&quot;elbowEdgeStyle&quot;,&quot;elbow&quot;:&quot;vertical&quot;,&quot;curved&quot;:0,&quot;rounded&quot;:0};" vertex="1" parent="Hem0ga0K1KAMjYj6NkU0-32">
          <mxGeometry x="45" y="75" width="10" height="80" as="geometry" />
        </mxCell>
        <mxCell id="Hem0ga0K1KAMjYj6NkU0-37" style="edgeStyle=orthogonalEdgeStyle;rounded=0;orthogonalLoop=1;jettySize=auto;html=1;" edge="1" parent="Hem0ga0K1KAMjYj6NkU0-1">
          <mxGeometry relative="1" as="geometry">
            <mxPoint x="655" y="374.5" as="sourcePoint" />
            <mxPoint x="915" y="374.5" as="targetPoint" />
          </mxGeometry>
        </mxCell>
        <mxCell id="Hem0ga0K1KAMjYj6NkU0-38" value="1. PIN code&lt;br&gt;2. SerialNumber(S/N)&lt;br&gt;3. Bought date&lt;br&gt;4. Bill image&lt;br&gt;" style="text;html=1;strokeColor=none;fillColor=none;align=left;verticalAlign=middle;whiteSpace=wrap;rounded=0;" vertex="1" parent="Hem0ga0K1KAMjYj6NkU0-1">
          <mxGeometry x="305" y="320" width="155" height="70" as="geometry" />
        </mxCell>
        <mxCell id="Hem0ga0K1KAMjYj6NkU0-39" value="" style="edgeStyle=elbowEdgeStyle;rounded=0;orthogonalLoop=1;jettySize=auto;html=1;elbow=vertical;curved=0;entryX=0;entryY=0.5;entryDx=0;entryDy=0;" edge="1" parent="Hem0ga0K1KAMjYj6NkU0-1" source="Hem0ga0K1KAMjYj6NkU0-33" target="Hem0ga0K1KAMjYj6NkU0-8">
          <mxGeometry relative="1" as="geometry" />
        </mxCell>
        <mxCell id="Hem0ga0K1KAMjYj6NkU0-40" value="1. Tìm salt, password trong database theo email" style="text;html=1;strokeColor=none;fillColor=none;align=left;verticalAlign=middle;whiteSpace=wrap;rounded=0;" vertex="1" parent="Hem0ga0K1KAMjYj6NkU0-1">
          <mxGeometry x="690" y="340" width="170" height="30" as="geometry" />
        </mxCell>
        <mxCell id="Hem0ga0K1KAMjYj6NkU0-41" value="2. Mã hoá password input (với salt). Sau đó so sánh" style="text;html=1;strokeColor=none;fillColor=none;align=left;verticalAlign=middle;whiteSpace=wrap;rounded=0;" vertex="1" parent="Hem0ga0K1KAMjYj6NkU0-1">
          <mxGeometry x="690" y="380" width="170" height="30" as="geometry" />
        </mxCell>
      </root>
    </mxGraphModel>
  </diagram>
</mxfile>
